REM DIRINDEX 1\2,1\3,1\4,1\5,1\6
REM DIRNAME "folder01","folder02","folder03","folder04","folder05","folder06"
TITLE ""
FILE "Disc2Track34.mp3" MP3
  TRACK 01 AUDIO
    TITLE "3:cjc161_03039"
    INDEX 01 00:00:00
  TRACK 02 AUDIO
    TITLE "4:cjc161_03040"
    INDEX 01 00:01:33
  TRACK 03 AUDIO
    TITLE "5:cjc161_03041"
    INDEX 01 00:02:72
  TRACK 04 AUDIO
    TITLE "6:cjc161_03042"
    INDEX 01 00:04:39
  TRACK 05 AUDIO
    TITLE "0:"
    INDEX 01 00:08:59
  TRACK 06 AUDIO
    TITLE "3:cjc161_03043"
    INDEX 01 00:09:17
  TRACK 07 AUDIO
    TITLE "4:cjc161_03044"
    INDEX 01 00:10:71
  TRACK 08 AUDIO
    TITLE "5:cjc161_03045"
    INDEX 01 00:11:69
  TRACK 09 AUDIO
    TITLE "0:"
    INDEX 01 00:13:50
  TRACK 10 AUDIO
    TITLE "3:cjc161_03046"
    INDEX 01 00:14:08
  TRACK 11 AUDIO
    TITLE "4:cjc161_03047"
    INDEX 01 00:15:63
  TRACK 12 AUDIO
    TITLE "5:cjc161_03048"
    INDEX 01 00:18:34
  TRACK 13 AUDIO
    TITLE "6:cjc161_03049"
    INDEX 01 00:20:13
  TRACK 14 AUDIO
    TITLE "0:"
    INDEX 01 00:23:70
  TRACK 15 AUDIO
    TITLE "3:cjc161_03050"
    INDEX 01 00:24:26
  TRACK 16 AUDIO
    TITLE "4:cjc161_03051"
    INDEX 01 00:25:61
  TRACK 17 AUDIO
    TITLE "5:cjc161_03052"
    INDEX 01 00:27:31
  TRACK 18 AUDIO
    TITLE "6:cjc161_03053"
    INDEX 01 00:28:63
  TRACK 19 AUDIO
    TITLE "0:"
    INDEX 01 00:31:56
  TRACK 20 AUDIO
    TITLE "3:cjc161_03054"
    INDEX 01 00:32:12
  TRACK 21 AUDIO
    TITLE "4:cjc161_03055"
    INDEX 01 00:33:57
  TRACK 22 AUDIO
    TITLE "5:cjc161_03056"
    INDEX 01 00:34:62
  TRACK 23 AUDIO
    TITLE "0:"
    INDEX 01 00:36:34
  TRACK 24 AUDIO
    TITLE "3:cjc161_03057"
    INDEX 01 00:36:67
  TRACK 25 AUDIO
    TITLE "4:cjc161_03058"
    INDEX 01 00:38:07
  TRACK 26 AUDIO
    TITLE "5:cjc161_03059"
    INDEX 01 00:39:57
  TRACK 27 AUDIO
    TITLE "6:cjc161_03060"
    INDEX 01 00:40:73
  TRACK 28 AUDIO
    TITLE "0:"
    INDEX 01 00:44:06
  TRACK 29 AUDIO
    TITLE "3:cjc161_03061"
    INDEX 01 00:44:39
  TRACK 30 AUDIO
    TITLE "4:cjc161_03062"
    INDEX 01 00:45:62
  TRACK 31 AUDIO
    TITLE "5:cjc161_03063"
    INDEX 01 00:46:71
  TRACK 32 AUDIO
    TITLE "6:cjc161_03064"
    INDEX 01 00:48:17
  TRACK 33 AUDIO
    TITLE "0:"
    INDEX 01 00:50:04
  TRACK 34 AUDIO
    TITLE "3:cjc161_03065"
    INDEX 01 00:50:36
  TRACK 35 AUDIO
    TITLE "4:cjc161_03066"
    INDEX 01 00:51:64
  TRACK 36 AUDIO
    TITLE "5:cjc161_03067"
    INDEX 01 00:52:66
  TRACK 37 AUDIO
    TITLE "0:"
    INDEX 01 00:54:22
  TRACK 38 AUDIO
    TITLE "3:cjc161_03068"
    INDEX 01 00:54:57
  TRACK 39 AUDIO
    TITLE "4:cjc161_03069"
    INDEX 01 00:56:13
  TRACK 40 AUDIO
    TITLE "5:cjc161_03070"
    INDEX 01 00:57:59
  TRACK 41 AUDIO
    TITLE "6:cjc161_03071"
    INDEX 01 00:59:13
  TRACK 42 AUDIO
    TITLE "0:"
    INDEX 01 01:02:45
  TRACK 43 AUDIO
    TITLE "3:cjc161_03072"
    INDEX 01 01:03:01
  TRACK 44 AUDIO
    TITLE "4:cjc161_03073"
    INDEX 01 01:04:32
  TRACK 45 AUDIO
    TITLE "5:cjc161_03074"
    INDEX 01 01:05:49
  TRACK 46 AUDIO
    TITLE "6:cjc161_03075"
    INDEX 01 01:07:03
  TRACK 47 AUDIO
    TITLE "0:"
    INDEX 01 01:10:58
  TRACK 48 AUDIO
    TITLE "3:cjc161_03076"
    INDEX 01 01:11:14
  TRACK 49 AUDIO
    TITLE "4:cjc161_03077"
    INDEX 01 01:12:47
  TRACK 50 AUDIO
    TITLE "5:cjc161_03078"
    INDEX 01 01:14:17
  TRACK 51 AUDIO
    TITLE "6:cjc161_03079"
    INDEX 01 01:15:49
  TRACK 52 AUDIO
    TITLE "0:"
    INDEX 01 01:19:04
  TRACK 53 AUDIO
    TITLE "3:cjc161_03080"
    INDEX 01 01:19:33
  TRACK 54 AUDIO
    TITLE "4:cjc161_03081"
    INDEX 01 01:21:01
  TRACK 55 AUDIO
    TITLE "5:cjc161_03082"
    INDEX 01 01:22:18
  TRACK 56 AUDIO
    TITLE "6:cjc161_03083"
    INDEX 01 01:23:59
  TRACK 57 AUDIO
    TITLE "0:"
    INDEX 01 01:28:30
  TRACK 58 AUDIO
    TITLE "3:cjc161_03084"
    INDEX 01 01:28:60
  TRACK 59 AUDIO
    TITLE "4:cjc161_03085"
    INDEX 01 01:30:27
  TRACK 60 AUDIO
    TITLE "5:cjc161_03086"
    INDEX 01 01:31:33
  TRACK 61 AUDIO
    TITLE "0:"
    INDEX 01 01:33:00
  TRACK 62 AUDIO
    TITLE "3:cjc161_03087"
    INDEX 01 01:33:41
  TRACK 63 AUDIO
    TITLE "4:cjc161_03088"
    INDEX 01 01:34:62
  TRACK 64 AUDIO
    TITLE "5:cjc161_03089"
    INDEX 01 01:37:31
  TRACK 65 AUDIO
    TITLE "6:cjc161_03090"
    INDEX 01 01:38:54
  TRACK 66 AUDIO
    TITLE "0:"
    INDEX 01 01:42:27
  TRACK 67 AUDIO
    TITLE "3:cjc161_03091"
    INDEX 01 01:42:58
  TRACK 68 AUDIO
    TITLE "4:cjc161_03092"
    INDEX 01 01:43:73
  TRACK 69 AUDIO
    TITLE "5:cjc161_03093"
    INDEX 01 01:44:65
  TRACK 70 AUDIO
    TITLE "0:"
    INDEX 01 01:46:07
  TRACK 71 AUDIO
    TITLE "3:cjc161_03094"
    INDEX 01 01:46:44
  TRACK 72 AUDIO
    TITLE "4:cjc161_03095"
    INDEX 01 01:47:69
  TRACK 73 AUDIO
    TITLE "5:cjc161_03096"
    INDEX 01 01:49:29
  TRACK 74 AUDIO
    TITLE "6:cjc161_03097"
    INDEX 01 01:50:54
  TRACK 75 AUDIO
    TITLE "0:"
    INDEX 01 01:53:32
  TRACK 76 AUDIO
    TITLE "3:cjc161_03098"
    INDEX 01 01:53:66
  TRACK 77 AUDIO
    TITLE "4:cjc161_03099"
    INDEX 01 01:55:17
  TRACK 78 AUDIO
    TITLE "5:cjc161_03100"
    INDEX 01 01:56:07
  TRACK 79 AUDIO
    TITLE "6:cjc161_03101"
    INDEX 01 01:57:34
  TRACK 80 AUDIO
    TITLE "0:"
    INDEX 01 01:59:45
